/* XPM */
static char *_f0f9092d9704097f8d608d85967c1ef[] = {
/* columns rows colors chars-per-pixel */
"32 32 151 2 ",
"   c #020200",
".  c #090907",
"X  c #10100E",
"o  c #0F1210",
"O  c #141411",
"+  c #191917",
"@  c #131A19",
"#  c #1D1D1B",
"$  c #20201F",
"%  c #242422",
"&  c #282826",
"*  c #2D2D2C",
"=  c #31312F",
"-  c #2D3533",
";  c #343432",
":  c #383836",
">  c #333938",
",  c #3B3B3A",
"<  c #7F2723",
"1  c #464644",
"2  c #4D4D4B",
"3  c #50504F",
"4  c #545553",
"5  c #585857",
"6  c #5C5C5B",
"7  c #60605F",
"8  c #626261",
"9  c #6B6B6A",
"0  c #757574",
"q  c #7E7472",
"w  c #787877",
"e  c #727979",
"r  c #7C7C7B",
"t  c #862924",
"y  c #922C26",
"u  c #9C2D27",
"i  c #962D28",
"p  c #992F29",
"a  c #B62A23",
"s  c #B63029",
"d  c #BC322B",
"f  c #B43A33",
"g  c #C11E16",
"h  c #C3251D",
"j  c #CA271E",
"k  c #C3281F",
"l  c #C52E26",
"z  c #CC2F26",
"x  c #C6322B",
"c  c #CB322A",
"v  c #D13027",
"b  c #D0342B",
"n  c #C83A32",
"m  c #C4423B",
"M  c #CA423B",
"N  c #A05551",
"B  c #8F6663",
"V  c #CC4A43",
"C  c #D34C45",
"Z  c #D84C45",
"A  c #D84F48",
"S  c #CF504A",
"D  c #D75049",
"F  c #D25B55",
"G  c #DE5F59",
"H  c #E05F58",
"J  c #D4635D",
"K  c #DB645E",
"L  c #E0645E",
"P  c #D56661",
"I  c #D76A65",
"U  c #DC6A64",
"Y  c #D76D68",
"T  c #DB6F6A",
"R  c #D7706B",
"E  c #D8706B",
"W  c #CD7E7A",
"Q  c #D97570",
"!  c #DC7A75",
"~  c #DC7E79",
"^  c #E47772",
"/  c #E27974",
"(  c #80807F",
")  c #AE827F",
"_  c #DD817D",
"`  c #7F8584",
"'  c #838382",
"]  c #888887",
"[  c #8A8A8A",
"{  c #948584",
"}  c #9A8C8A",
"|  c #949493",
" . c #9C9C9B",
".. c #A88481",
"X. c #A0A09F",
"o. c #A4A4A3",
"O. c #A8A8A7",
"+. c #ABABAA",
"@. c #B2A2A1",
"#. c #B5B5B4",
"$. c #BEBFBE",
"%. c #CF8480",
"&. c #DD8480",
"*. c #E58C88",
"=. c #E2928E",
"-. c #E39895",
";. c #E49D99",
":. c #E5A09D",
">. c #E9A29E",
",. c #D0A7A4",
"<. c #E7A5A2",
"1. c #E7A8A5",
"2. c #E9ADAA",
"3. c #EBB1AE",
"4. c #EBB6B3",
"5. c #ECB8B6",
"6. c #EDBDBB",
"7. c #F1BBB8",
"8. c #C0C0BF",
"9. c #EEC1BF",
"0. c #BFC5C5",
"q. c #C4C4C4",
"w. c #CDC1C0",
"e. c #CBCBCB",
"r. c #D2CFCE",
"t. c #D0D0CF",
"y. c #D5D5D5",
"u. c #DCDCDB",
"i. c #EEC3C1",
"p. c #F0C7C5",
"a. c #F1C9C7",
"s. c #F2CECC",
"d. c #F2D1CF",
"f. c #E8DBDA",
"g. c #F3D4D2",
"h. c #F6DCDB",
"j. c #F8DBDA",
"k. c #E0E0DF",
"l. c #F7E0DF",
"z. c #F8E0DF",
"x. c #E2E2E2",
"c. c #ECECEC",
"v. c #F7E2E1",
"b. c #F8E6E5",
"n. c #F1EFEE",
"m. c #FAECEB",
"M. c #F6F7F6",
"N. c #FCF5F5",
"B. c #FDF8F7",
"V. c #FEFEFE",
"C. c None",
/* pixels */
"C.C.C.C.C.C.C.C.C.C.C.C.$ * ; = ; = > B C.C.C.C.C.C.C.C.C.C.C.C.",
"C.C.C.C.C.C.C.C.C.# = 1 5 6 6 8 8 6 e -.D m t C.C.C.C.C.C.C.C.C.",
"C.C.C.C.C.C.C.C.: 5 8 8 8 8 7 8 8 5 | *.Y T L V < C.C.C.C.C.C.C.",
"C.C.C.C.C.C.& 2 8 8 8 5 5 5 5 6 6 5 @./ Y Y T T H f C.C.C.C.C.C.",
"C.C.C.C.C.* 5 8 6 8 w [ [ O.q.t.' ` ,.I Y Y Y Y E U m C.C.C.C.C.",
"C.C.C.C.* 8 9 ' y.u.c.V.V.V.V.V.u.0.i.P Y Y Y P Y T T M C.C.C.C.",
"C.C.C.& 6 8 6 | V.c.[ ' r w 0 r x.n.g.2.P P I -._ J Y U f C.C.C.",
"C.C.C.3 w 9 8 ] u.+.3 6 5 8 9 5 [ M.3.h.b.=.3.h.;.>.T E H t C.C.",
"C.C., 8 6 0 u.y.u.| 6 8 7 8 7 6 [ f.>.9.V.g.d.P 6.V.~ Y =.A C.C.",
"C.# 5 8 8 5  .q.| 8 8 8 8 8 6 5 | N.z.b.V.V.V.s.b.m.Y _ <.^ y C.",
"C.; 8 8 8 8 5 8 6 8 8 6 8 8 9 w O.V.V.V.V.m.v.N.m.6.J i.h.! V C.",
"C.2 9 8 8 8 8 7 8 8 8 9 8 6 9 8 r.h.N.B.m.9.s.-.<.E P 4.6.Y G C.",
"% 5 8 8 8 8 8 8 6 8 9 0 ' 8 o.$.c.B.V.b.m.V.V.s.F Y Y b.;.Y K p ",
"= 7 8 6 5 6 6 8 8 8 7 8 | o.q.V.V.V.V.V.v.p.V.V.5.J =.N.F n c s ",
", 8 7 9 | q. .6 8 8 6 8 [ 8.x.V.V.V.h.>.E P 4.V.V.Y d.3.g l l x ",
", 8 8 8 9 w 0 6 8 6 9 x.M.c.M.V.N.6.J F S n l Q V.a.V.F h l l l ",
", 8 8 8 +.| 5 7 e 5 #.V.M.n.V.B.<.n x l l l l h ! <.4.l l l l l ",
", 8 7 9 ( 8 7 6 8 6 o.y.e.B.V.V.B.J g l l l l l h x n k l l l x ",
": 9 8 8 8 7 9 [ 3 o.V.q.] c.V.V.V.g.S h l l l l l l l l l l l d ",
"% 7 8 6 1 3 q.6 0 V.V.V.o.8 c.V.V.V.B.F k l l l l l l l l l l u ",
"C.; * $ O , 8 4 V.V.V.q.1   } 7.i.m.B.5.l l l l l l l l l l v C.",
"C.$ + # % , ' e.y.q.9 # , 6 w.g.g.d.;.V F l l l l l l x l l c C.",
"C.$ # O * = | e.t.[ [ y.V.V.V.V.V.V.V.b.=.l l l l l l l l v u C.",
"C.C.% 2 1 y.c.[ c.V.V.x.B.M.m.b.h.d.p.6.M l l l x l l l l b C.C.",
"C.C.% 2 O.O.3   o.V.0 % - { Z c l k l h l l l x l l l l v i C.C.",
"C.C.C.; = = % X 6 V.r . @ ) z l l l l l l l l l l l l l x C.C.C.",
"C.C.C.C.$ + # + % t.$.X - W k l l l l l l l l l l l l b C.C.C.C.",
"C.C.C.C.C.% # # + % 8 # 4 P k l l l l l l l l l l l b C.C.C.C.C.",
"C.C.C.C.C.C.% $ # # X o q Z l l l l l l l l x l v d C.C.C.C.C.C.",
"C.C.C.C.C.C.C.$ % # # @ ..b l l l l l l l l v v p C.C.C.C.C.C.C.",
"C.C.C.C.C.C.C.C.C.% $ - %.j l l l l l c v x p C.C.C.C.C.C.C.C.C.",
"C.C.C.C.C.C.C.C.C.C.C.C.N a x l l x s u C.C.C.C.C.C.C.C.C.C.C.C."
};
