/* XPM */
static char *_1b20c55dd0d4bfb92fcb4540c03cade[] = {
/* columns rows colors chars-per-pixel */
"16 16 184 2 ",
"   c #141412",
".  c #151513",
"X  c #171715",
"o  c #1A1A18",
"O  c #20201F",
"+  c #21211F",
"@  c #1A2321",
"#  c #232322",
"$  c #252523",
"%  c #252524",
"&  c #272725",
"*  c #2A2A29",
"=  c #282B2A",
"-  c #2C2C2B",
";  c #2F2F2D",
":  c #2F2F2E",
">  c #434342",
",  c #474746",
"<  c #454A49",
"1  c #4A4A49",
"2  c #494B4A",
"3  c #4C4C4B",
"4  c #4D4D4C",
"5  c #50504F",
"6  c #4A5250",
"7  c #525250",
"8  c #525251",
"9  c #555554",
"0  c #585857",
"q  c #585957",
"w  c #595958",
"e  c #5A5A59",
"r  c #5C5C5B",
"t  c #5D5D5C",
"y  c #5E5E5D",
"u  c #5F5F5E",
"i  c #7B4946",
"p  c #665452",
"a  c #5C6261",
"s  c #616160",
"d  c #626261",
"f  c #636362",
"g  c #646462",
"h  c #646463",
"j  c #656564",
"k  c #676766",
"l  c #686867",
"z  c #6B6B6A",
"x  c #6C6C6B",
"c  c #696D6C",
"v  c #6C6D6C",
"b  c #6D6D6C",
"n  c #6E6E6D",
"m  c #717170",
"M  c #727271",
"N  c #747473",
"B  c #7A7B7A",
"V  c #7B7B7A",
"C  c #7F7F7E",
"Z  c #882520",
"A  c #892520",
"S  c #8F2620",
"D  c #902621",
"F  c #84302B",
"G  c #81302C",
"H  c #8F3430",
"J  c #963A35",
"K  c #A42A24",
"L  c #BA2F27",
"P  c #BB2F27",
"I  c #A23F3A",
"U  c #BC3B34",
"Y  c #C11B13",
"T  c #C3251D",
"R  c #C3261D",
"E  c #C3261E",
"W  c #C4281F",
"Q  c #C42921",
"!  c #C52B23",
"~  c #C52C24",
"^  c #C52D24",
"/  c #C62D25",
"(  c #C52E25",
")  c #C52E26",
"_  c #C62E26",
"`  c #C72E26",
"'  c #C72F27",
"]  c #CB2B22",
"[  c #C82C23",
"{  c #C72F28",
"}  c #D02F27",
"|  c #CD3027",
" . c #CE3027",
".. c #C73028",
"X. c #C63129",
"o. c #C7322A",
"O. c #CC3129",
"+. c #D43128",
"@. c #D43129",
"#. c #C93B34",
"$. c #B44A44",
"%. c #AE5853",
"&. c #8A6B68",
"*. c #807F7F",
"=. c #CF4E47",
"-. c #D44942",
";. c #D0554F",
":. c #D25852",
">. c #D6615B",
",. c #D6625C",
"<. c #D66A65",
"1. c #D96D68",
"2. c #DB746F",
"3. c #DB7873",
"4. c #DA7974",
"5. c #E56F69",
"6. c #E66E68",
"7. c #E7736D",
"8. c #E07B76",
"9. c #818180",
"0. c #898988",
"q. c #8B8B8A",
"w. c #8F8F8E",
"e. c #90908F",
"r. c #989897",
"t. c #9F9F9E",
"y. c #9F9F9F",
"u. c #BF8987",
"i. c #A4A4A4",
"p. c #A7A7A6",
"a. c #B4B4B3",
"s. c #B0B5B5",
"d. c #BBB4B3",
"f. c gray72",
"g. c #B9B9B8",
"h. c #BBBBBB",
"j. c #D68E8A",
"k. c #E18A86",
"l. c #E1918D",
"z. c #E2928E",
"x. c #E39692",
"c. c #E39793",
"v. c #E59F9B",
"b. c #E6A29F",
"n. c #D1BCBB",
"m. c #E8AAA7",
"M. c #E9ABA8",
"N. c #F0A8A5",
"B. c #EDBBB8",
"V. c #C4C4C3",
"C. c gray77",
"Z. c #C8C8C8",
"A. c #CBCBCA",
"S. c gray81",
"D. c #D4D0CF",
"F. c #D0D0D0",
"G. c #D7D7D7",
"H. c #DCD5D4",
"J. c #DFDFDF",
"K. c #EFC5C2",
"L. c #F4C6C4",
"P. c #F2CDCB",
"I. c #F5D8D6",
"U. c #F5D9D8",
"Y. c #FBDEDC",
"T. c #F7E0DF",
"R. c #E2E2E2",
"E. c #E9EAE9",
"W. c #F7E1E0",
"Q. c #F8E2E1",
"!. c #F8E3E2",
"~. c #FBE7E6",
"^. c #FCF0EF",
"/. c #F1F0F0",
"(. c #F3F3F3",
"). c #FCF0F0",
"_. c #FCF2F1",
"`. c #FDF4F4",
"'. c #F8F9F8",
"]. c #FAFAF9",
"[. c gray99",
"{. c #FFFEFE",
"}. c gray100",
"|. c None",
/* pixels */
"|.|.|.|.|.* > 3 < &.J |.|.|.|.|.",
"|.|.|.# 1 r u g a u.5.,.G |.|.|.",
"|.|.: n i.a.V.G.s.j.,.1.5.I |.|.",
"|.% l w.R.9.B B D.L.x.c.l.7.F |.",
"|.8 n f.r.0 r 0 d.Y.{.P.U.k.8.|.",
"- g u d u j u n H.{.^.U.b.x.N.H ",
", g j j d g *.C.{.{.W.`.3.M.2.U ",
"5 j e.N w 0.F.].Q.l.:.v.T.m.E / ",
"8 z C u d A.'.{.x.Y Q R <.;.W ..",
"3 u 0 m p.(.y./._.4.R / R Q / L ",
"+ + % q.J.y.1 n.~.B.#.! ) )  .S ",
"|.$ n h.S.f.E.^.Q.K.=.Q ) .. .|.",
"|.* m : Z.c p -...../ / ) @.Z |.",
"|.|.. . 9 6 i } ) ) ) / @.K |.|.",
"|.|.|.o X @ %.] ) /  .O.A |.|.|.",
"|.|.|.|.|.= $./ ..L D |.|.|.|.|."
};
