/* XPM */
static char *_169c296a95f4ea5efe5a9c08e97de36[] = {
/* columns rows colors chars-per-pixel */
"64 64 182 2 ",
"   c #030301",
".  c #090907",
"X  c #0E0E0C",
"o  c #11110F",
"O  c #151513",
"+  c #191917",
"@  c #1D1D1B",
"#  c #20201F",
"$  c #242423",
"%  c #282826",
"&  c #2C2C2B",
"*  c #30302F",
"=  c #343432",
"-  c #383836",
";  c #3D3D3C",
":  c #7D2C28",
">  c #3D403E",
",  c #40403E",
"<  c #3D4443",
"1  c #444442",
"2  c #494947",
"3  c #4B4B4A",
"4  c #50504E",
"5  c #555554",
"6  c #585857",
"7  c #565E5D",
"8  c #5D5D5C",
"9  c #60605F",
"0  c #5A6261",
"q  c #626261",
"w  c #686867",
"e  c #666F6E",
"r  c #6C6C6B",
"t  c #70706F",
"y  c #6D7170",
"u  c #747473",
"i  c #787877",
"p  c #727C7B",
"a  c #7C7C7B",
"s  c #812E2A",
"d  c #8A2F2A",
"f  c #9D322C",
"g  c #8D3632",
"h  c #9B3732",
"j  c #9C3A34",
"k  c #A82D26",
"l  c #A1332D",
"z  c #AD332C",
"x  c #B0322C",
"c  c #A33631",
"v  c #AA3630",
"b  c #A33B35",
"n  c #BC3730",
"m  c #B53A34",
"M  c #BE3932",
"N  c #B73F39",
"B  c #C12017",
"V  c #C2231B",
"C  c #C3281F",
"Z  c #C52E26",
"A  c #CB2D25",
"S  c #D02F27",
"D  c #C6332B",
"F  c #CB342C",
"G  c #D2342C",
"H  c #D3382F",
"J  c #C83730",
"K  c #C33831",
"L  c #CB3B33",
"P  c #CC3F38",
"I  c #D23931",
"U  c #BE4039",
"Y  c #CD443D",
"T  c #D2433C",
"R  c #B74640",
"E  c #CC4740",
"W  c #CE4B44",
"Q  c #CF4F48",
"!  c #D04F48",
"~  c #D1534D",
"^  c #D15751",
"/  c #D25B55",
"(  c #D95B54",
")  c #D35E58",
"_  c #D4635D",
"`  c #D56661",
"'  c #DD6660",
"]  c #D66A65",
"[  c #D76D68",
"{  c #D86F6A",
"}  c #D8716C",
"|  c #DA7571",
" . c #DB7A75",
".. c #DC7E79",
"X. c #E57D78",
"o. c #80807F",
"O. c #DC817C",
"+. c #848483",
"@. c #888887",
"#. c #8B8C8B",
"$. c #8A908F",
"%. c #90908F",
"&. c #8D9595",
"*. c #949494",
"=. c #989897",
"-. c #939999",
";. c #9C9C9B",
":. c #99A1A1",
">. c #A4A4A3",
",. c #A8A8A7",
"<. c #A6ACAC",
"1. c #ABABAA",
"2. c #B0B0AF",
"3. c #ACB3B2",
"4. c #B4B4B3",
"5. c #B8B8B7",
"6. c #B5BBBB",
"7. c #BCBCBC",
"8. c #DE8782",
"9. c #DF8A86",
"0. c #DF8D89",
"q. c #E58A86",
"w. c #E98985",
"e. c #E08F8B",
"r. c #E1918E",
"t. c #E29591",
"y. c #EC9591",
"u. c #E39995",
"i. c #E59E9B",
"p. c #E5A19E",
"a. c #E6A5A2",
"s. c #E7A8A5",
"d. c #EAA9A6",
"f. c #E9AEAA",
"g. c #F1ACA8",
"h. c #EAB2AF",
"j. c #F1B2AF",
"k. c #EBB5B2",
"l. c #ECB9B6",
"z. c #EDBDBA",
"x. c #F2B6B3",
"c. c #F2BEBB",
"v. c #EEC1BE",
"b. c #C4C4C4",
"n. c #C8C6C6",
"m. c #C7C8C7",
"M. c #CBCBCB",
"N. c #D3CDCC",
"B. c #CED0D0",
"V. c #D4D4D4",
"C. c #DDD4D3",
"Z. c #DBDCDB",
"A. c #EFC5C2",
"S. c #ECCDCB",
"D. c #F0C7C5",
"F. c #F1C9C7",
"G. c #F9C9C7",
"H. c #F1CDCC",
"J. c #F8CDCB",
"K. c #F3D1CF",
"L. c #E4D2D1",
"P. c #EED7D6",
"I. c #ECDBDB",
"U. c #F4D4D2",
"Y. c #F5D9D7",
"T. c #F5DBDA",
"R. c #E0E0DF",
"E. c #F7E0DF",
"W. c #E5E5E5",
"Q. c #E8E8E7",
"!. c #ECECEC",
"~. c #F7E2E1",
"^. c #F8E5E4",
"/. c #F9E8E7",
"(. c #F2EAEA",
"). c #FAECEB",
"_. c #F0F0EF",
"`. c #F4F4F4",
"'. c #FCF4F3",
"]. c #FDF8F7",
"[. c #FFFFFF",
"{. c None",
/* pixels */
"{.{.{.{.{.{.{.{.{.{.{.{.{.{.{.{.{.{.{.{.{.{.{.{.{.{.{.$ & & @ + + @ % * $ % {.{.{.{.{.{.{.{.{.{.{.{.{.{.{.{.{.{.{.{.{.{.{.{.{.{.",
"{.{.{.{.{.{.{.{.{.{.{.{.{.{.{.{.{.{.{.{.{.{.{.$ $ $ $ & = - ; ; ; ; - = & $ N.^ k : {.{.{.{.{.{.{.{.{.{.{.{.{.{.{.{.{.{.{.{.{.{.",
"{.{.{.{.{.{.{.{.{.{.{.{.{.{.{.{.{.{.{.{.& $ $ = 1 5 8 q q w q q q w q w 8 u P.^ T I F n {.{.{.{.{.{.{.{.{.{.{.{.{.{.{.{.{.{.{.{.",
"{.{.{.{.{.{.{.{.{.{.{.{.{.{.{.{.{.{.& $ & 3 8 q q q q 9 q q q q q q q q 6 -.G.] } ] / T G D g {.{.{.{.{.{.{.{.{.{.{.{.{.{.{.{.{.",
"{.{.{.{.{.{.{.{.{.{.{.{.{.{.{.{.$ $ = 6 q q q 9 q q q q q q q q q 9 q q 6 6.g.` [ [ { { ` W H D {.{.{.{.{.{.{.{.{.{.{.{.{.{.{.{.",
"{.{.{.{.{.{.{.{.{.{.{.{.{.{.& $ = 6 q q q q q q q q q q 9 q q q 9 q q q 8 V.q.] [ [ [ [ [ } ` E H m {.{.{.{.{.{.{.{.{.{.{.{.{.{.",
"{.{.{.{.{.{.{.{.{.{.{.{.{.% $ 3 q q q q q q q q q q q q q q q q q q q 8 y I.} ] [ [ [ [ [ [ [ } ) I F {.{.{.{.{.{.{.{.{.{.{.{.{.",
"{.{.{.{.{.{.{.{.{.{.{.{.$ = 8 q 9 q 9 q q q q q q q 8 8 6 6 8 6 8 9 q 6 %.K.` [ [ [ [ [ [ [ [ ] [ [ W S j {.{.{.{.{.{.{.{.{.{.{.",
"{.{.{.{.{.{.{.{.{.{.$ # ; q q q q 0 9 9 9 w q q 6 6 8 r a ;.=.4.q 8 8 5 2.j.` [ [ [ [ [ [ [ [ [ [ [ } ^ S c {.{.{.{.{.{.{.{.{.{.",
"{.{.{.{.{.{.{.{.{.& $ 3 q q q q 6 9 q r t ,.2.=.;.5.Z.!.[.[.[.[.>.+.,.,.M.r.` [ [ [ [ [ [ [ [ [ [ [ [ } ) S R {.{.{.{.{.{.{.{.{.",
"{.{.{.{.{.{.{.{.$ @ 3 q r q 8 t *.M.M.>.n.V._.[.[.[.[.[.[.[.[.[.V.m.=.Z.(.| ] [ [ [ [ [ [ [ [ [ [ [ [ [ } _ G l {.{.{.{.{.{.{.{.",
"{.{.{.{.{.{.{.{.$ 2 q r %.q q M.[.[.[.`.[.[.[.[.[.[.[.[.[.[.[.[.Q.Z.B.%.[.k.` ] [ [ [ [ [ [ [ [ [ [ [ [ [ } ) S b {.{.{.{.{.{.{.",
"{.{.{.{.{.{.{.$ 1 q q q 8 q t M.[.[.[.[.1.=.=.*.%.%.+.+.o.a u =.].V.[.B.U.].s.` ] [ [ [ [ ] ` ` ] [ [ [ [ [ } / G {.{.{.{.{.{.{.",
"{.{.{.{.{.{.% = q 8 q q q q 6 1.[.[.].>.6 6 6 6 6 6 8 6 6 8 8 8 m.`.[.[.u.Y.[.9.] ` ] [ ] [ i.z.F.| ` [ [ [ [ } Q G {.{.{.{.{.{.",
"{.{.{.{.{.& & 9 i ;.q q 8 i o.q !.[.!.q 8 q q 9 9 q 9 q +.q 9 8 9 B.[.[.e.s.].H.^.A.t.` ` v.[.[.s._ 9.] [ [ [ [ [ P K {.{.{.{.{.",
"{.{.{.{.{.$ 3 q q t w t 6 8 r 2.4.5.Q.+.6 q 9 q q q q r #.q q 9 q y Q.].F.9.U.T.[.[.).[ f.[.F.p.8.u.[.h.` [ [ [ [ _ H g {.{.{.{.",
"{.{.{.{.$ - q q 9 8 8 =.V.7.M.!.b.7.,.%.6 q q q 9 q q 9 8 9 q 9 u ,.M.'.D.t.u./.[.[.[.9.^.~.` ) O.].[.[.8.` [ ] |  .Q D {.{.{.{.",
"{.{.{.{.$ 8 q q q q 8 i ].[.V.,.[.[.b.t 8 q q q q 9 9 q 9 q q 8 t M.B.U.r.a.9.[.[.[.[.s.U.~.` _ ..].[.[.e.` [ } k.i.] I b {.{.{.",
"{.{.{.& ; w q q q 9 q 6 o.!.V.B.Q.i 6 8 q 9 9 q q q 9 q q 9 9 9 8 +.`.^.U.D.s.[.[.[.[.)./.[.A.r.U.[.[.~.] [ ] 8.f.l. .^ G {.{.{.",
"{.{.{.$ 8 q q q q 9 q q 6 y >.7.+.6 q q q q 9 q 9 q q 9 q 9 8 9 9 V.[.[.[.[./.[.[.[.[.[.[.[.[./.A.[.[.v.` [ } t.r.q.p.} I d {.{.",
"{.{.& - q q q q 9 q 9 9 q 8 q q 8 q q 9 9 q q 9 q 9 q q 9 r a q +.[.[.[.[.[.[.[.[.[.[.[.[.[.[.[.h.'.[.f._ ] t./.].p.| } Q J {.{.",
"{.{.$ 5 q q q q q q q q q q q 8 q 9 q q q 9 q q q 9 9 q 8 +.B.r 6 n.].[.[.[.[.[.[.[.[.z.T.H.).[.Y.U.~.[ ] ] s.T.'.T. .] ] G {.{.",
"{.{.& q q q q q q 9 9 q q q q 9 9 q q q 9 q 9 8 9 q q q 9 9 0 8 n.`.h.D.].[.[.[.[.[.A.9.f.r. .r.).U.| ] [ ] O.^.].l.` [ [ T f {.",
"{.$ ; q q 9 q q 9 q q q q q q 9 9 q q q r q q t q 9 9 9 8 w 6 w B.].'.U.T.[.[.].].~.0.).[.[.z.) O...] [ [ ] ..H.l.[ ] [ } ^ D {.",
"{.$ 3 q q 9 q q q 9 q q q 9 q q q q 9 w =.q 8 >.>.9 9 8 +.!.,.i 7.).U.[.[.[.T.f.D.D./.[.[.[.[.r._ ] [ [ [ _ k.[.A.] ] [ { ` F {.",
"{.& 8 q 9 q q 9 9 q q 9 q q 9 q 9 q q 9 8 q q w u q q q 1.,.M.].[.[.[.[.[.[.'.].[.[.[.[.[.[.[.k._ ] [ [ [ [ ^.[.z.] } { [ _ I {.",
"% * q q 9 q q q q q q 9 q q 9 q 9 q q 9 q 9 9 u 7.Z.7.@.r >.`.[.[.[.[.[.[.[.[.[.[.[.~.[.[.[.[.].z.] [ [ ` r.[.[.9.) ^ Y J Z A f ",
"$ - q q q q q q q 8 6 6 6 q q q q q 9 q q 9 9 8 r i u ,.!.[.[.[.[.[.[.[.[.[.[.[./.k.` k.[.[.[.[.[.l.] [ _ H.[.H.D Z Z C Z Z A z ",
"& ; q q q q q 8 8 t #.4.,.6 q 9 q 9 q q 9 q 9 8 q ;.Q.[.`.`.[.[.[.[.[.[.[.[.).i.} [ ] ` z.[.[.[.[.[.r.J [ ].[...B Z Z Z Z Z Z K ",
"& 1 q q q q q +.4.Z.`.[.[.a 8 q 9 q 9 q 9 9 9 t %.1.=.#.%.Z.[.[.[.[.[.].K.h.| _ [ [ } [ [ l./.[.[.[.i.C T.[.).L Z Z Z Z Z Z Z J ",
"$ 3 q q q q q r t t t u a t 8 q q q q 9 q 6 2.`.`.!._._.[.[.[.[.[.[.[.f._ ` [ } } ` / W L Z ^ Y.[.[.h.a.[.[.a.B Z Z Z Z Z Z Z D ",
"+ 3 q q q q q q 8 6 6 6 8 8 q q 8 8 q q 6 +.[.[.[.[.[.[.[.[.[.[.).[.D.| [ ] ) Q L D Z C Z Z B _ [.[.A.A.[.[.^ C Z Z Z Z Z Z Z Z ",
"@ 3 q q q 9 q 8 6 ,.,.r 8 q q 8 i a 9 9 q W.[.[.[.[.Q.].[.[.[.'.r.0.) Q Y Z Z Z Z Z Z Z Z Z Z Z ..].H.p.[.D.C Z Z Z Z Z Z Z Z Z ",
"# 3 q 9 q 9 9 t m.`.Z.o.8 q 9 8 +.+.8 6 >.[.[.[.[.Z.n.[.[.[.[.[.'.] B Z Z Z Z Z Z Z Z Z Z Z Z Z B ^ W O.].E Z Z Z Z Z Z Z Z Z D ",
"% 2 w 9 9 q q %.=.t 8 8 q q q q 8 8 q 8 q 1.[.[._.*._.[.[.[.[.[.[.).E V Z Z Z Z Z Z Z Z Z Z Z Z Z V V W ] C Z Z Z Z Z Z Z Z Z D ",
"* , 9 q 9 q q 8 6 8 q 9 q q 9 q 8 q q 9 7.>.+.Q.b.>.[.[.[.[.[.[.[.[.U.D C Z Z Z Z Z Z Z Z Z Z Z Z Z Z Z V Z Z Z Z Z Z Z Z Z Z K ",
"# ; #.9 q 9 q q q 0 9 q 9 9 6 8 i r 3 5.[.[.5.t a V.[.[.[.[.[.[.[.[.[.f.B V Z Z Z Z Z Z Z Z Z Z Z Z Z D Z Z Z Z Z Z Z Z Z Z Z x ",
"$ = +.q q 9 q 9 q q q q 6 q %.n.a @ +.[.[.[.[._.+.1 5.`.[.[.[.[.[.[.^.z.8.^ C Z Z Z Z Z Z Z Z Z Z Z Z Z Z Z Z Z Z Z Z Z Z Z A c ",
"{.& 8 9 9 9 q q w q 8 4 >.!.Q.9   w [.[.[.[.[.[.M.3 4 !.[.[.[.[.[.[.[.[.[./.L Z Z Z Z Z Z Z Z Z Z Z Z Z Z Z Z Z D Z Z Z Z Z S s ",
"{.% 6 w w q 9 4 ; * + 1 [.b.*   5 ].[.[.[.[.[._.Q.V.o - M.[.[.[.[.[.[.[.[.[.k.V Z Z D Z Z Z Z Z Z Z Z Z Z Z Z Z Z Z Z Z Z Z G {.",
"{.$ 1 5 , = $ + + + o o.*.O . , !.[.[.[.[.[.[.[.,.= @ o - `.[.[.[.[.[.[.[.[.[. .B Z Z Z Z D Z Z Z Z Z Z Z Z Z Z Z Z Z Z Z Z J {.",
"{.$ # @ + + @ @ @ @ @ % a 2 & R.[.[.[.[.[.[.B.6 O O @ O 7 c._ [ [ t.H.[.[.).v.H.E Z Z Z Z Z Z Z Z Z Z Z Z Z Z Z Z Z Z Z Z A v {.",
"{.{.$ @ @ @ @ @ @ + + % !.q 4.[.[.[.[.[.`.+.# X O X O   #.J.v.k.u.U.a.9.8.0.J L Q B Z Z Z Z Z Z Z Z Z Z Z Z Z Z Z Z Z Z D S {.{.",
"{.{.& + @ @ @ @ # , O i i 6 N.n.7.;.5.4.- . + & 2 t ,.*.7.[.[.[.[.[.[.'.z.| P B 0.[ Z Z Z Z Z Z Z Z Z Z Z D Z Z Z Z Z Z Z L {.{.",
"{.{.{.@ @ @ @ + & @.+ * ; 7.5.7.Z.u = + $ 5 %.Z.[.[.[.[.[.[.[.[.[.[.[.[.[.[.).f.0.K.Z Z Z Z Z Z Z Z Z Z Z Z Z Z Z Z Z Z S c {.{.",
"{.{.{.& @ @ @ @ + # O 1 +.1.,.1.[.[.`.Z.!.`.].[.[.[.[.[.[.[.[.[.[.[.[.[.[.[.[.[.a._ B Z Z Z Z Z Z Z D Z Z Z Z Z Z Z Z Z H {.{.{.",
"{.{.{.& # @ O # ; o u [.[.[.[.;.].[.[.[.[.[.[.[.[.[.[.[.[.[.[.[.[.[.[.[.[.[.[.[.) C Z Z Z Z Z Z Z Z Z Z D Z Z Z Z Z Z A N {.{.{.",
"{.{.{.{.% + a >., 7 [.[.[.V.r + 5.[.[.[.[.R.+.Q.[.[.`.[.).T.T.F.A.l.f.a.t.0.O.} D Z Z Z Z Z Z Z Z Z Z Z Z Z Z Z Z Z Z G {.{.{.{.",
"{.{.{.{.{.& a $ , [.[.5.r % X o w [.[.[.5.$ $ 5 2 ; > C.! A Z Z Z V B B B B B B Z Z Z Z Z Z Z Z Z Z Z Z Z Z Z Z Z Z S b {.{.{.{.",
"{.{.{.{.{.& X ; Z.,.1 4 q % + + * `.[.[.b.O + O O X < D.C Z Z Z Z Z D Z Z Z D Z Z Z Z Z Z Z Z Z Z Z Z Z Z Z Z Z Z A L {.{.{.{.{.",
"{.{.{.{.{.{.% t 3 . ; =.& + @ @ O 7.[.[.Z.@ + @ @ o p g.B Z Z Z Z Z Z Z D Z Z Z Z Z Z Z D Z Z Z Z Z Z Z Z Z Z Z Z G {.{.{.{.{.{.",
"{.{.{.{.{.{.{.@ O @ % + + @ @ @ X a [.[.Z.$ @ @ @ o <.X.C Z Z Z Z Z Z Z Z Z Z Z Z Z Z Z Z Z Z Z D Z Z Z Z Z Z Z S h {.{.{.{.{.{.",
"{.{.{.{.{.{.{.= # @ + @ @ @ @ @ + - `.[._.* O @ @ @ N.! C Z Z Z Z Z Z Z Z Z Z D Z Z Z Z Z Z Z Z Z Z Z Z Z Z Z A U {.{.{.{.{.{.{.",
"{.{.{.{.{.{.{.{.& @ @ @ @ @ @ @ @ O 5 Q.[.1.+ @ O > S.D Z Z Z Z Z Z Z Z Z Z Z Z Z Z D Z Z Z Z Z Z Z Z Z Z Z A M {.{.{.{.{.{.{.{.",
"{.{.{.{.{.{.{.{.{.= @ @ @ @ @ @ # @ o - ,.>.& + o e x.C Z Z Z Z Z Z Z Z Z Z Z Z Z Z Z Z Z Z Z Z Z Z Z Z Z A P {.{.{.{.{.{.{.{.{.",
"{.{.{.{.{.{.{.{.{.{.& @ @ # @ @ @ @ @ + o o @ @ o :.q.B Z Z Z Z Z Z Z Z Z Z Z Z Z Z Z Z D Z Z Z Z Z Z Z A M {.{.{.{.{.{.{.{.{.{.",
"{.{.{.{.{.{.{.{.{.{.{.= $ @ @ @ @ @ @ # @ @ @ @ + n.( C Z Z D Z Z Z Z Z Z Z Z Z Z Z Z Z Z Z Z Z Z Z Z S U {.{.{.{.{.{.{.{.{.{.{.",
"{.{.{.{.{.{.{.{.{.{.{.{.{.$ @ @ @ @ @ @ @ @ @ O = L.J Z Z Z Z Z Z Z Z Z Z Z Z Z Z Z Z Z Z Z Z Z Z A G h {.{.{.{.{.{.{.{.{.{.{.{.",
"{.{.{.{.{.{.{.{.{.{.{.{.{.{.& # @ @ @ @ @ @ # O 0 c.C Z Z Z Z Z Z Z Z Z Z Z Z Z Z Z Z Z Z Z Z Z A L {.{.{.{.{.{.{.{.{.{.{.{.{.{.",
"{.{.{.{.{.{.{.{.{.{.{.{.{.{.{.& $ @ @ @ @ @ @ o &.y.B Z Z Z Z Z Z Z Z Z Z Z Z D D Z Z Z Z Z A G b {.{.{.{.{.{.{.{.{.{.{.{.{.{.{.",
"{.{.{.{.{.{.{.{.{.{.{.{.{.{.{.{.{.= $ @ @ + @ O 7.' C Z Z Z Z Z Z Z Z Z Z Z Z Z Z Z Z Z A H N {.{.{.{.{.{.{.{.{.{.{.{.{.{.{.{.{.",
"{.{.{.{.{.{.{.{.{.{.{.{.{.{.{.{.{.{.{.% & $ + & L.P Z Z Z Z Z Z Z Z Z Z Z Z Z Z Z A S I c {.{.{.{.{.{.{.{.{.{.{.{.{.{.{.{.{.{.{.",
"{.{.{.{.{.{.{.{.{.{.{.{.{.{.{.{.{.{.{.{.{.{.# 7 G.A A A Z Z Z Z Z Z Z Z Z A S F J v {.{.{.{.{.{.{.{.{.{.{.{.{.{.{.{.{.{.{.{.{.{.",
"{.{.{.{.{.{.{.{.{.{.{.{.{.{.{.{.{.{.{.{.{.{.{.{.{.{.f z D J D Z Z D J L x v s {.{.{.{.{.{.{.{.{.{.{.{.{.{.{.{.{.{.{.{.{.{.{.{.{."
};
